<mxfile host="app.diagrams.net" agent="Mozilla/5.0 (X11; Linux x86_64) AppleWebKit/537.36 (KHTML, like Gecko) Chrome/131.0.0.0 Safari/537.36" version="26.1.0">
  <diagram name="Страница — 1" id="gwsFE-EOCy1Aly3XYbYx">
    <mxGraphModel dx="1368" dy="824" grid="0" gridSize="10" guides="0" tooltips="1" connect="1" arrows="1" fold="1" page="0" pageScale="1" pageWidth="827" pageHeight="1169" math="0" shadow="0">
      <root>
        <mxCell id="0" />
        <mxCell id="1" parent="0" />
        <mxCell id="Z-UmWc9-oxAZ6C5yDNQT-2" value="&lt;b&gt;&lt;font style=&quot;font-size: 16px;&quot;&gt;H&lt;/font&gt;&lt;/b&gt;" style="whiteSpace=wrap;html=1;aspect=fixed;fillColor=none;fontFamily=Helvetica;" parent="1" vertex="1">
          <mxGeometry x="160" y="340" width="40" height="40" as="geometry" />
        </mxCell>
        <mxCell id="Z-UmWc9-oxAZ6C5yDNQT-3" value="&lt;b&gt;&lt;font style=&quot;font-size: 16px;&quot;&gt;A&lt;/font&gt;&lt;/b&gt;" style="whiteSpace=wrap;html=1;aspect=fixed;fillColor=none;fontFamily=Helvetica;" parent="1" vertex="1">
          <mxGeometry x="200" y="340" width="40" height="40" as="geometry" />
        </mxCell>
        <mxCell id="Z-UmWc9-oxAZ6C5yDNQT-4" value="" style="whiteSpace=wrap;html=1;aspect=fixed;fillColor=none;fontFamily=Helvetica;" parent="1" vertex="1">
          <mxGeometry x="240" y="340" width="40" height="40" as="geometry" />
        </mxCell>
        <mxCell id="Z-UmWc9-oxAZ6C5yDNQT-5" value="&lt;b&gt;&lt;font style=&quot;font-size: 16px;&quot;&gt;H&lt;/font&gt;&lt;/b&gt;" style="whiteSpace=wrap;html=1;aspect=fixed;fillColor=none;fontFamily=Helvetica;" parent="1" vertex="1">
          <mxGeometry x="280" y="340" width="40" height="40" as="geometry" />
        </mxCell>
        <mxCell id="Z-UmWc9-oxAZ6C5yDNQT-6" value="&lt;b&gt;&lt;font style=&quot;font-size: 16px;&quot;&gt;B&lt;/font&gt;&lt;/b&gt;" style="whiteSpace=wrap;html=1;aspect=fixed;fillColor=none;fontFamily=Helvetica;" parent="1" vertex="1">
          <mxGeometry x="320" y="340" width="40" height="40" as="geometry" />
        </mxCell>
        <mxCell id="Z-UmWc9-oxAZ6C5yDNQT-7" value="&lt;b&gt;&lt;font style=&quot;font-size: 16px;&quot;&gt;B&lt;/font&gt;&lt;/b&gt;" style="whiteSpace=wrap;html=1;aspect=fixed;fillColor=none;fontFamily=Helvetica;" parent="1" vertex="1">
          <mxGeometry x="360" y="340" width="40" height="40" as="geometry" />
        </mxCell>
        <mxCell id="Z-UmWc9-oxAZ6C5yDNQT-8" value="" style="whiteSpace=wrap;html=1;aspect=fixed;fillColor=none;fontFamily=Helvetica;" parent="1" vertex="1">
          <mxGeometry x="400" y="340" width="40" height="40" as="geometry" />
        </mxCell>
        <mxCell id="Z-UmWc9-oxAZ6C5yDNQT-9" value="" style="whiteSpace=wrap;html=1;aspect=fixed;fillColor=none;fontFamily=Helvetica;" parent="1" vertex="1">
          <mxGeometry x="440" y="340" width="40" height="40" as="geometry" />
        </mxCell>
        <mxCell id="Z-UmWc9-oxAZ6C5yDNQT-15" value="" style="whiteSpace=wrap;html=1;aspect=fixed;fillColor=none;fontFamily=Helvetica;" parent="1" vertex="1">
          <mxGeometry x="480" y="340" width="40" height="40" as="geometry" />
        </mxCell>
        <mxCell id="Z-UmWc9-oxAZ6C5yDNQT-16" value="" style="whiteSpace=wrap;html=1;aspect=fixed;fillColor=none;fontFamily=Helvetica;" parent="1" vertex="1">
          <mxGeometry x="520" y="340" width="40" height="40" as="geometry" />
        </mxCell>
        <mxCell id="Z-UmWc9-oxAZ6C5yDNQT-88" value="&lt;b&gt;&lt;font style=&quot;font-size: 16px;&quot;&gt;H&lt;/font&gt;&lt;/b&gt;" style="whiteSpace=wrap;html=1;aspect=fixed;fillColor=none;fontFamily=Helvetica;" parent="1" vertex="1">
          <mxGeometry x="160" y="420" width="40" height="40" as="geometry" />
        </mxCell>
        <mxCell id="Z-UmWc9-oxAZ6C5yDNQT-89" value="&lt;b&gt;&lt;font style=&quot;font-size: 16px;&quot;&gt;A&lt;/font&gt;&lt;/b&gt;" style="whiteSpace=wrap;html=1;aspect=fixed;fillColor=none;fontFamily=Helvetica;" parent="1" vertex="1">
          <mxGeometry x="200" y="420" width="40" height="40" as="geometry" />
        </mxCell>
        <mxCell id="Z-UmWc9-oxAZ6C5yDNQT-90" value="" style="whiteSpace=wrap;html=1;aspect=fixed;fillColor=none;fontFamily=Helvetica;" parent="1" vertex="1">
          <mxGeometry x="240" y="420" width="40" height="40" as="geometry" />
        </mxCell>
        <mxCell id="Z-UmWc9-oxAZ6C5yDNQT-91" value="&lt;b&gt;&lt;font style=&quot;font-size: 16px;&quot;&gt;H&lt;/font&gt;&lt;/b&gt;" style="whiteSpace=wrap;html=1;aspect=fixed;fillColor=none;fontFamily=Helvetica;" parent="1" vertex="1">
          <mxGeometry x="280" y="420" width="40" height="40" as="geometry" />
        </mxCell>
        <mxCell id="Z-UmWc9-oxAZ6C5yDNQT-92" value="&lt;b&gt;&lt;font style=&quot;font-size: 16px;&quot;&gt;B&lt;/font&gt;&lt;/b&gt;" style="whiteSpace=wrap;html=1;aspect=fixed;fillColor=none;fontFamily=Helvetica;" parent="1" vertex="1">
          <mxGeometry x="320" y="420" width="40" height="40" as="geometry" />
        </mxCell>
        <mxCell id="Z-UmWc9-oxAZ6C5yDNQT-93" value="&lt;b&gt;&lt;font style=&quot;font-size: 16px;&quot;&gt;B&lt;/font&gt;&lt;/b&gt;" style="whiteSpace=wrap;html=1;aspect=fixed;fillColor=none;fontFamily=Helvetica;" parent="1" vertex="1">
          <mxGeometry x="360" y="420" width="40" height="40" as="geometry" />
        </mxCell>
        <mxCell id="Z-UmWc9-oxAZ6C5yDNQT-106" value="" style="whiteSpace=wrap;html=1;aspect=fixed;fillColor=none;fontFamily=Helvetica;" parent="1" vertex="1">
          <mxGeometry x="400" y="420" width="40" height="40" as="geometry" />
        </mxCell>
        <mxCell id="Z-UmWc9-oxAZ6C5yDNQT-108" value="&lt;b&gt;&lt;font style=&quot;font-size: 16px;&quot;&gt;H&lt;/font&gt;&lt;/b&gt;" style="whiteSpace=wrap;html=1;aspect=fixed;fillColor=none;fontFamily=Helvetica;" parent="1" vertex="1">
          <mxGeometry x="440" y="420" width="40" height="40" as="geometry" />
        </mxCell>
        <mxCell id="Z-UmWc9-oxAZ6C5yDNQT-109" value="&lt;b&gt;&lt;font style=&quot;font-size: 16px;&quot;&gt;C&lt;/font&gt;&lt;/b&gt;" style="whiteSpace=wrap;html=1;aspect=fixed;fillColor=none;fontFamily=Helvetica;" parent="1" vertex="1">
          <mxGeometry x="480" y="420" width="40" height="40" as="geometry" />
        </mxCell>
        <mxCell id="Z-UmWc9-oxAZ6C5yDNQT-110" value="&lt;b&gt;&lt;font style=&quot;font-size: 16px;&quot;&gt;C&lt;/font&gt;&lt;/b&gt;" style="whiteSpace=wrap;html=1;aspect=fixed;fillColor=none;fontFamily=Helvetica;" parent="1" vertex="1">
          <mxGeometry x="520" y="420" width="40" height="40" as="geometry" />
        </mxCell>
        <mxCell id="Z-UmWc9-oxAZ6C5yDNQT-111" value="&lt;b&gt;&lt;font style=&quot;font-size: 16px;&quot;&gt;C&lt;/font&gt;&lt;/b&gt;" style="whiteSpace=wrap;html=1;aspect=fixed;fillColor=none;fontFamily=Helvetica;" parent="1" vertex="1">
          <mxGeometry x="560" y="420" width="40" height="40" as="geometry" />
        </mxCell>
        <mxCell id="Z-UmWc9-oxAZ6C5yDNQT-112" value="&lt;b&gt;&lt;font style=&quot;font-size: 16px;&quot;&gt;C&lt;/font&gt;&lt;/b&gt;" style="whiteSpace=wrap;html=1;aspect=fixed;fillColor=none;fontFamily=Helvetica;" parent="1" vertex="1">
          <mxGeometry x="600" y="420" width="40" height="40" as="geometry" />
        </mxCell>
        <mxCell id="Z-UmWc9-oxAZ6C5yDNQT-113" value="&lt;b&gt;&lt;font style=&quot;font-size: 16px;&quot;&gt;H&lt;/font&gt;&lt;/b&gt;" style="whiteSpace=wrap;html=1;aspect=fixed;fillColor=none;fontFamily=Helvetica;" parent="1" vertex="1">
          <mxGeometry x="160" y="260" width="40" height="40" as="geometry" />
        </mxCell>
        <mxCell id="Z-UmWc9-oxAZ6C5yDNQT-114" value="&lt;b&gt;&lt;font style=&quot;font-size: 16px;&quot;&gt;A&lt;/font&gt;&lt;/b&gt;" style="whiteSpace=wrap;html=1;aspect=fixed;fillColor=none;fontFamily=Helvetica;" parent="1" vertex="1">
          <mxGeometry x="200" y="260" width="40" height="40" as="geometry" />
        </mxCell>
        <mxCell id="Z-UmWc9-oxAZ6C5yDNQT-115" value="" style="whiteSpace=wrap;html=1;aspect=fixed;fillColor=none;fontFamily=Helvetica;" parent="1" vertex="1">
          <mxGeometry x="240" y="260" width="40" height="40" as="geometry" />
        </mxCell>
        <mxCell id="Z-UmWc9-oxAZ6C5yDNQT-116" value="" style="whiteSpace=wrap;html=1;aspect=fixed;fillColor=none;fontFamily=Helvetica;" parent="1" vertex="1">
          <mxGeometry x="280" y="260" width="40" height="40" as="geometry" />
        </mxCell>
        <mxCell id="Z-UmWc9-oxAZ6C5yDNQT-117" value="" style="whiteSpace=wrap;html=1;aspect=fixed;fillColor=none;fontFamily=Helvetica;" parent="1" vertex="1">
          <mxGeometry x="320" y="260" width="40" height="40" as="geometry" />
        </mxCell>
        <mxCell id="Z-UmWc9-oxAZ6C5yDNQT-118" value="" style="whiteSpace=wrap;html=1;aspect=fixed;fillColor=none;fontFamily=Helvetica;" parent="1" vertex="1">
          <mxGeometry x="360" y="260" width="40" height="40" as="geometry" />
        </mxCell>
        <mxCell id="Z-UmWc9-oxAZ6C5yDNQT-119" value="" style="whiteSpace=wrap;html=1;aspect=fixed;fillColor=none;fontFamily=Helvetica;" parent="1" vertex="1">
          <mxGeometry x="400" y="260" width="40" height="40" as="geometry" />
        </mxCell>
        <mxCell id="Z-UmWc9-oxAZ6C5yDNQT-120" value="" style="whiteSpace=wrap;html=1;aspect=fixed;fillColor=none;fontFamily=Helvetica;" parent="1" vertex="1">
          <mxGeometry x="440" y="260" width="40" height="40" as="geometry" />
        </mxCell>
        <mxCell id="Z-UmWc9-oxAZ6C5yDNQT-125" value="" style="whiteSpace=wrap;html=1;aspect=fixed;fillColor=none;fontFamily=Helvetica;" parent="1" vertex="1">
          <mxGeometry x="480" y="260" width="40" height="40" as="geometry" />
        </mxCell>
        <mxCell id="Z-UmWc9-oxAZ6C5yDNQT-126" value="" style="whiteSpace=wrap;html=1;aspect=fixed;fillColor=none;fontFamily=Helvetica;" parent="1" vertex="1">
          <mxGeometry x="520" y="260" width="40" height="40" as="geometry" />
        </mxCell>
        <mxCell id="Z-UmWc9-oxAZ6C5yDNQT-130" value="" style="whiteSpace=wrap;html=1;aspect=fixed;fillColor=none;fontFamily=Helvetica;" parent="1" vertex="1">
          <mxGeometry x="640" y="420" width="40" height="40" as="geometry" />
        </mxCell>
        <mxCell id="Z-UmWc9-oxAZ6C5yDNQT-131" value="&lt;b&gt;&lt;font style=&quot;font-size: 16px;&quot;&gt;H&lt;/font&gt;&lt;/b&gt;" style="whiteSpace=wrap;html=1;aspect=fixed;fillColor=none;fontFamily=Helvetica;" parent="1" vertex="1">
          <mxGeometry x="160" y="500" width="40" height="40" as="geometry" />
        </mxCell>
        <mxCell id="Z-UmWc9-oxAZ6C5yDNQT-132" value="&lt;b&gt;&lt;font style=&quot;font-size: 16px;&quot;&gt;A&lt;/font&gt;&lt;/b&gt;" style="whiteSpace=wrap;html=1;aspect=fixed;fillColor=none;fontFamily=Helvetica;" parent="1" vertex="1">
          <mxGeometry x="200" y="500" width="40" height="40" as="geometry" />
        </mxCell>
        <mxCell id="Z-UmWc9-oxAZ6C5yDNQT-133" value="" style="whiteSpace=wrap;html=1;aspect=fixed;fillColor=none;fontFamily=Helvetica;" parent="1" vertex="1">
          <mxGeometry x="240" y="500" width="40" height="40" as="geometry" />
        </mxCell>
        <mxCell id="Z-UmWc9-oxAZ6C5yDNQT-134" value="&lt;b&gt;&lt;font style=&quot;font-size: 16px;&quot;&gt;H&lt;/font&gt;&lt;/b&gt;" style="whiteSpace=wrap;html=1;aspect=fixed;fillColor=none;fontFamily=Helvetica;" parent="1" vertex="1">
          <mxGeometry x="280" y="500" width="40" height="40" as="geometry" />
        </mxCell>
        <mxCell id="Z-UmWc9-oxAZ6C5yDNQT-135" value="&lt;b&gt;&lt;font style=&quot;font-size: 16px;&quot;&gt;B&lt;/font&gt;&lt;/b&gt;" style="whiteSpace=wrap;html=1;aspect=fixed;fillColor=none;fontFamily=Helvetica;" parent="1" vertex="1">
          <mxGeometry x="320" y="500" width="40" height="40" as="geometry" />
        </mxCell>
        <mxCell id="Z-UmWc9-oxAZ6C5yDNQT-136" value="&lt;b&gt;&lt;font style=&quot;font-size: 16px;&quot;&gt;B&lt;/font&gt;&lt;/b&gt;" style="whiteSpace=wrap;html=1;aspect=fixed;fillColor=none;fontFamily=Helvetica;" parent="1" vertex="1">
          <mxGeometry x="360" y="500" width="40" height="40" as="geometry" />
        </mxCell>
        <mxCell id="Z-UmWc9-oxAZ6C5yDNQT-139" value="" style="whiteSpace=wrap;html=1;aspect=fixed;fillColor=none;fontFamily=Helvetica;" parent="1" vertex="1">
          <mxGeometry x="400" y="500" width="40" height="40" as="geometry" />
        </mxCell>
        <mxCell id="Z-UmWc9-oxAZ6C5yDNQT-140" value="&lt;b&gt;&lt;font style=&quot;font-size: 16px;&quot;&gt;H&lt;/font&gt;&lt;/b&gt;" style="whiteSpace=wrap;html=1;aspect=fixed;fillColor=none;fontFamily=Helvetica;" parent="1" vertex="1">
          <mxGeometry x="440" y="500" width="40" height="40" as="geometry" />
        </mxCell>
        <mxCell id="Z-UmWc9-oxAZ6C5yDNQT-141" value="&lt;b&gt;&lt;font style=&quot;font-size: 16px;&quot;&gt;C&lt;/font&gt;&lt;/b&gt;" style="whiteSpace=wrap;html=1;aspect=fixed;fillColor=none;fontFamily=Helvetica;" parent="1" vertex="1">
          <mxGeometry x="480" y="500" width="40" height="40" as="geometry" />
        </mxCell>
        <mxCell id="Z-UmWc9-oxAZ6C5yDNQT-142" value="&lt;b&gt;&lt;font style=&quot;font-size: 16px;&quot;&gt;C&lt;/font&gt;&lt;/b&gt;" style="whiteSpace=wrap;html=1;aspect=fixed;fillColor=none;fontFamily=Helvetica;" parent="1" vertex="1">
          <mxGeometry x="520" y="500" width="40" height="40" as="geometry" />
        </mxCell>
        <mxCell id="Z-UmWc9-oxAZ6C5yDNQT-143" value="&lt;b&gt;&lt;font style=&quot;font-size: 16px;&quot;&gt;C&lt;/font&gt;&lt;/b&gt;" style="whiteSpace=wrap;html=1;aspect=fixed;fillColor=none;fontFamily=Helvetica;" parent="1" vertex="1">
          <mxGeometry x="560" y="500" width="40" height="40" as="geometry" />
        </mxCell>
        <mxCell id="Z-UmWc9-oxAZ6C5yDNQT-144" value="&lt;b&gt;&lt;font style=&quot;font-size: 16px;&quot;&gt;C&lt;/font&gt;&lt;/b&gt;" style="whiteSpace=wrap;html=1;aspect=fixed;fillColor=none;fontFamily=Helvetica;" parent="1" vertex="1">
          <mxGeometry x="600" y="500" width="40" height="40" as="geometry" />
        </mxCell>
        <mxCell id="Z-UmWc9-oxAZ6C5yDNQT-154" value="" style="whiteSpace=wrap;html=1;aspect=fixed;fillColor=none;fontFamily=Helvetica;" parent="1" vertex="1">
          <mxGeometry x="560" y="260" width="40" height="40" as="geometry" />
        </mxCell>
        <mxCell id="Z-UmWc9-oxAZ6C5yDNQT-155" value="" style="whiteSpace=wrap;html=1;aspect=fixed;fillColor=none;fontFamily=Helvetica;" parent="1" vertex="1">
          <mxGeometry x="600" y="260" width="40" height="40" as="geometry" />
        </mxCell>
        <mxCell id="Z-UmWc9-oxAZ6C5yDNQT-156" value="" style="whiteSpace=wrap;html=1;aspect=fixed;fillColor=none;fontFamily=Helvetica;" parent="1" vertex="1">
          <mxGeometry x="640" y="260" width="40" height="40" as="geometry" />
        </mxCell>
        <mxCell id="Z-UmWc9-oxAZ6C5yDNQT-157" value="" style="whiteSpace=wrap;html=1;aspect=fixed;fillColor=none;fontFamily=Helvetica;" parent="1" vertex="1">
          <mxGeometry x="680" y="260" width="40" height="40" as="geometry" />
        </mxCell>
        <mxCell id="Z-UmWc9-oxAZ6C5yDNQT-158" value="" style="whiteSpace=wrap;html=1;aspect=fixed;fillColor=none;fontFamily=Helvetica;" parent="1" vertex="1">
          <mxGeometry x="720" y="260" width="40" height="40" as="geometry" />
        </mxCell>
        <mxCell id="Z-UmWc9-oxAZ6C5yDNQT-159" value="" style="whiteSpace=wrap;html=1;aspect=fixed;fillColor=none;fontFamily=Helvetica;" parent="1" vertex="1">
          <mxGeometry x="760" y="260" width="40" height="40" as="geometry" />
        </mxCell>
        <mxCell id="Z-UmWc9-oxAZ6C5yDNQT-160" value="" style="whiteSpace=wrap;html=1;aspect=fixed;fillColor=none;fontFamily=Helvetica;" parent="1" vertex="1">
          <mxGeometry x="800" y="260" width="40" height="40" as="geometry" />
        </mxCell>
        <mxCell id="Z-UmWc9-oxAZ6C5yDNQT-161" value="" style="whiteSpace=wrap;html=1;aspect=fixed;fillColor=none;fontFamily=Helvetica;" parent="1" vertex="1">
          <mxGeometry x="840" y="260" width="40" height="40" as="geometry" />
        </mxCell>
        <mxCell id="Z-UmWc9-oxAZ6C5yDNQT-163" value="&lt;b&gt;&lt;font style=&quot;font-size: 16px;&quot;&gt;H&lt;/font&gt;&lt;/b&gt;" style="whiteSpace=wrap;html=1;aspect=fixed;fillColor=none;fontFamily=Helvetica;" parent="1" vertex="1">
          <mxGeometry x="760" y="500" width="40" height="40" as="geometry" />
        </mxCell>
        <mxCell id="Z-UmWc9-oxAZ6C5yDNQT-165" value="&lt;b&gt;&lt;font style=&quot;font-size: 16px;&quot;&gt;D&lt;/font&gt;&lt;/b&gt;" style="whiteSpace=wrap;html=1;aspect=fixed;fillColor=none;fontFamily=Helvetica;" parent="1" vertex="1">
          <mxGeometry x="800" y="500" width="40" height="40" as="geometry" />
        </mxCell>
        <mxCell id="Z-UmWc9-oxAZ6C5yDNQT-166" value="&lt;b&gt;&lt;font style=&quot;font-size: 16px;&quot;&gt;D&lt;/font&gt;&lt;/b&gt;" style="whiteSpace=wrap;html=1;aspect=fixed;fillColor=none;fontFamily=Helvetica;" parent="1" vertex="1">
          <mxGeometry x="840" y="500" width="40" height="40" as="geometry" />
        </mxCell>
        <mxCell id="Z-UmWc9-oxAZ6C5yDNQT-167" value="&lt;b&gt;&lt;font style=&quot;font-size: 16px;&quot;&gt;D&lt;/font&gt;&lt;/b&gt;" style="whiteSpace=wrap;html=1;aspect=fixed;fillColor=none;fontFamily=Helvetica;" parent="1" vertex="1">
          <mxGeometry x="880" y="500" width="40" height="40" as="geometry" />
        </mxCell>
        <mxCell id="Z-UmWc9-oxAZ6C5yDNQT-168" value="&lt;b&gt;&lt;font style=&quot;font-size: 16px;&quot;&gt;D&lt;/font&gt;&lt;/b&gt;" style="whiteSpace=wrap;html=1;aspect=fixed;fillColor=none;fontFamily=Helvetica;" parent="1" vertex="1">
          <mxGeometry x="920" y="500" width="40" height="40" as="geometry" />
        </mxCell>
        <mxCell id="Z-UmWc9-oxAZ6C5yDNQT-169" value="&lt;b&gt;&lt;font style=&quot;font-size: 16px;&quot;&gt;D&lt;/font&gt;&lt;/b&gt;" style="whiteSpace=wrap;html=1;aspect=fixed;fillColor=none;fontFamily=Helvetica;" parent="1" vertex="1">
          <mxGeometry x="960" y="500" width="40" height="40" as="geometry" />
        </mxCell>
        <mxCell id="Z-UmWc9-oxAZ6C5yDNQT-170" value="&lt;b&gt;&lt;font style=&quot;font-size: 16px;&quot;&gt;D&lt;/font&gt;&lt;/b&gt;" style="whiteSpace=wrap;html=1;aspect=fixed;fillColor=none;fontFamily=Helvetica;" parent="1" vertex="1">
          <mxGeometry x="1000" y="500" width="40" height="40" as="geometry" />
        </mxCell>
        <mxCell id="Z-UmWc9-oxAZ6C5yDNQT-171" value="&lt;b&gt;&lt;font style=&quot;font-size: 16px;&quot;&gt;D&lt;/font&gt;&lt;/b&gt;" style="whiteSpace=wrap;html=1;aspect=fixed;fillColor=none;fontFamily=Helvetica;" parent="1" vertex="1">
          <mxGeometry x="1040" y="500" width="40" height="40" as="geometry" />
        </mxCell>
        <mxCell id="Z-UmWc9-oxAZ6C5yDNQT-172" value="&lt;b&gt;&lt;font style=&quot;font-size: 16px;&quot;&gt;D&lt;/font&gt;&lt;/b&gt;" style="whiteSpace=wrap;html=1;aspect=fixed;fillColor=none;fontFamily=Helvetica;" parent="1" vertex="1">
          <mxGeometry x="1080" y="500" width="40" height="40" as="geometry" />
        </mxCell>
        <mxCell id="Z-UmWc9-oxAZ6C5yDNQT-173" value="" style="whiteSpace=wrap;html=1;aspect=fixed;fillColor=none;fontFamily=Helvetica;" parent="1" vertex="1">
          <mxGeometry x="640" y="500" width="40" height="40" as="geometry" />
        </mxCell>
        <mxCell id="Z-UmWc9-oxAZ6C5yDNQT-174" value="" style="whiteSpace=wrap;html=1;aspect=fixed;fillColor=none;fontFamily=Helvetica;" parent="1" vertex="1">
          <mxGeometry x="680" y="500" width="40" height="40" as="geometry" />
        </mxCell>
        <mxCell id="Z-UmWc9-oxAZ6C5yDNQT-175" value="" style="whiteSpace=wrap;html=1;aspect=fixed;fillColor=none;fontFamily=Helvetica;" parent="1" vertex="1">
          <mxGeometry x="720" y="500" width="40" height="40" as="geometry" />
        </mxCell>
        <mxCell id="Z-UmWc9-oxAZ6C5yDNQT-176" value="" style="whiteSpace=wrap;html=1;aspect=fixed;fillColor=none;fontFamily=Helvetica;" parent="1" vertex="1">
          <mxGeometry x="560" y="340" width="40" height="40" as="geometry" />
        </mxCell>
        <mxCell id="Z-UmWc9-oxAZ6C5yDNQT-177" value="" style="whiteSpace=wrap;html=1;aspect=fixed;fillColor=none;fontFamily=Helvetica;" parent="1" vertex="1">
          <mxGeometry x="600" y="340" width="40" height="40" as="geometry" />
        </mxCell>
        <mxCell id="Z-UmWc9-oxAZ6C5yDNQT-178" value="" style="whiteSpace=wrap;html=1;aspect=fixed;fillColor=none;fontFamily=Helvetica;" parent="1" vertex="1">
          <mxGeometry x="640" y="340" width="40" height="40" as="geometry" />
        </mxCell>
        <mxCell id="Z-UmWc9-oxAZ6C5yDNQT-179" value="" style="whiteSpace=wrap;html=1;aspect=fixed;fillColor=none;fontFamily=Helvetica;" parent="1" vertex="1">
          <mxGeometry x="680" y="340" width="40" height="40" as="geometry" />
        </mxCell>
        <mxCell id="Z-UmWc9-oxAZ6C5yDNQT-180" value="" style="whiteSpace=wrap;html=1;aspect=fixed;fillColor=none;fontFamily=Helvetica;" parent="1" vertex="1">
          <mxGeometry x="720" y="340" width="40" height="40" as="geometry" />
        </mxCell>
        <mxCell id="Z-UmWc9-oxAZ6C5yDNQT-181" value="" style="whiteSpace=wrap;html=1;aspect=fixed;fillColor=none;fontFamily=Helvetica;" parent="1" vertex="1">
          <mxGeometry x="760" y="340" width="40" height="40" as="geometry" />
        </mxCell>
        <mxCell id="Z-UmWc9-oxAZ6C5yDNQT-182" value="" style="whiteSpace=wrap;html=1;aspect=fixed;fillColor=none;fontFamily=Helvetica;" parent="1" vertex="1">
          <mxGeometry x="800" y="340" width="40" height="40" as="geometry" />
        </mxCell>
        <mxCell id="Z-UmWc9-oxAZ6C5yDNQT-183" value="" style="whiteSpace=wrap;html=1;aspect=fixed;fillColor=none;fontFamily=Helvetica;" parent="1" vertex="1">
          <mxGeometry x="840" y="340" width="40" height="40" as="geometry" />
        </mxCell>
        <mxCell id="Z-UmWc9-oxAZ6C5yDNQT-184" value="" style="whiteSpace=wrap;html=1;aspect=fixed;fillColor=none;fontFamily=Helvetica;" parent="1" vertex="1">
          <mxGeometry x="880" y="340" width="40" height="40" as="geometry" />
        </mxCell>
        <mxCell id="Z-UmWc9-oxAZ6C5yDNQT-185" value="" style="whiteSpace=wrap;html=1;aspect=fixed;fillColor=none;fontFamily=Helvetica;" parent="1" vertex="1">
          <mxGeometry x="920" y="340" width="40" height="40" as="geometry" />
        </mxCell>
        <mxCell id="Z-UmWc9-oxAZ6C5yDNQT-186" value="" style="whiteSpace=wrap;html=1;aspect=fixed;fillColor=none;fontFamily=Helvetica;" parent="1" vertex="1">
          <mxGeometry x="680" y="420" width="40" height="40" as="geometry" />
        </mxCell>
        <mxCell id="Z-UmWc9-oxAZ6C5yDNQT-187" value="" style="whiteSpace=wrap;html=1;aspect=fixed;fillColor=none;fontFamily=Helvetica;" parent="1" vertex="1">
          <mxGeometry x="720" y="420" width="40" height="40" as="geometry" />
        </mxCell>
        <mxCell id="Z-UmWc9-oxAZ6C5yDNQT-188" value="" style="whiteSpace=wrap;html=1;aspect=fixed;fillColor=none;fontFamily=Helvetica;" parent="1" vertex="1">
          <mxGeometry x="760" y="420" width="40" height="40" as="geometry" />
        </mxCell>
        <mxCell id="Z-UmWc9-oxAZ6C5yDNQT-189" value="" style="whiteSpace=wrap;html=1;aspect=fixed;fillColor=none;fontFamily=Helvetica;" parent="1" vertex="1">
          <mxGeometry x="800" y="420" width="40" height="40" as="geometry" />
        </mxCell>
        <mxCell id="Z-UmWc9-oxAZ6C5yDNQT-190" value="" style="whiteSpace=wrap;html=1;aspect=fixed;fillColor=none;fontFamily=Helvetica;" parent="1" vertex="1">
          <mxGeometry x="840" y="420" width="40" height="40" as="geometry" />
        </mxCell>
        <mxCell id="Z-UmWc9-oxAZ6C5yDNQT-191" value="" style="whiteSpace=wrap;html=1;aspect=fixed;fillColor=none;fontFamily=Helvetica;" parent="1" vertex="1">
          <mxGeometry x="880" y="420" width="40" height="40" as="geometry" />
        </mxCell>
        <mxCell id="Z-UmWc9-oxAZ6C5yDNQT-192" value="" style="whiteSpace=wrap;html=1;aspect=fixed;fillColor=none;fontFamily=Helvetica;" parent="1" vertex="1">
          <mxGeometry x="920" y="420" width="40" height="40" as="geometry" />
        </mxCell>
        <mxCell id="Z-UmWc9-oxAZ6C5yDNQT-193" value="" style="whiteSpace=wrap;html=1;aspect=fixed;fillColor=none;fontFamily=Helvetica;" parent="1" vertex="1">
          <mxGeometry x="960" y="420" width="40" height="40" as="geometry" />
        </mxCell>
        <mxCell id="Z-UmWc9-oxAZ6C5yDNQT-194" value="" style="whiteSpace=wrap;html=1;aspect=fixed;fillColor=none;fontFamily=Helvetica;" parent="1" vertex="1">
          <mxGeometry x="1000" y="420" width="40" height="40" as="geometry" />
        </mxCell>
        <mxCell id="Z-UmWc9-oxAZ6C5yDNQT-195" value="" style="whiteSpace=wrap;html=1;aspect=fixed;fillColor=none;fontFamily=Helvetica;" parent="1" vertex="1">
          <mxGeometry x="1040" y="420" width="40" height="40" as="geometry" />
        </mxCell>
        <mxCell id="Z-UmWc9-oxAZ6C5yDNQT-196" value="" style="whiteSpace=wrap;html=1;aspect=fixed;fillColor=none;fontFamily=Helvetica;" parent="1" vertex="1">
          <mxGeometry x="880" y="260" width="40" height="40" as="geometry" />
        </mxCell>
        <mxCell id="Z-UmWc9-oxAZ6C5yDNQT-197" value="" style="whiteSpace=wrap;html=1;aspect=fixed;fillColor=none;fontFamily=Helvetica;" parent="1" vertex="1">
          <mxGeometry x="920" y="260" width="40" height="40" as="geometry" />
        </mxCell>
        <mxCell id="Z-UmWc9-oxAZ6C5yDNQT-198" value="" style="whiteSpace=wrap;html=1;aspect=fixed;fillColor=none;fontFamily=Helvetica;" parent="1" vertex="1">
          <mxGeometry x="960" y="260" width="40" height="40" as="geometry" />
        </mxCell>
        <mxCell id="Z-UmWc9-oxAZ6C5yDNQT-199" value="" style="whiteSpace=wrap;html=1;aspect=fixed;fillColor=none;fontFamily=Helvetica;" parent="1" vertex="1">
          <mxGeometry x="1000" y="260" width="40" height="40" as="geometry" />
        </mxCell>
        <mxCell id="Z-UmWc9-oxAZ6C5yDNQT-200" value="" style="whiteSpace=wrap;html=1;aspect=fixed;fillColor=none;fontFamily=Helvetica;" parent="1" vertex="1">
          <mxGeometry x="1040" y="260" width="40" height="40" as="geometry" />
        </mxCell>
        <mxCell id="Z-UmWc9-oxAZ6C5yDNQT-201" value="" style="whiteSpace=wrap;html=1;aspect=fixed;fillColor=none;fontFamily=Helvetica;" parent="1" vertex="1">
          <mxGeometry x="960" y="340" width="40" height="40" as="geometry" />
        </mxCell>
        <mxCell id="Z-UmWc9-oxAZ6C5yDNQT-202" value="" style="whiteSpace=wrap;html=1;aspect=fixed;fillColor=none;fontFamily=Helvetica;" parent="1" vertex="1">
          <mxGeometry x="1000" y="340" width="40" height="40" as="geometry" />
        </mxCell>
        <mxCell id="Z-UmWc9-oxAZ6C5yDNQT-203" value="" style="whiteSpace=wrap;html=1;aspect=fixed;fillColor=none;fontFamily=Helvetica;" parent="1" vertex="1">
          <mxGeometry x="1040" y="340" width="40" height="40" as="geometry" />
        </mxCell>
        <mxCell id="Z-UmWc9-oxAZ6C5yDNQT-204" value="" style="whiteSpace=wrap;html=1;aspect=fixed;fillColor=none;fontFamily=Helvetica;" parent="1" vertex="1">
          <mxGeometry x="1080" y="340" width="40" height="40" as="geometry" />
        </mxCell>
        <mxCell id="Z-UmWc9-oxAZ6C5yDNQT-205" value="" style="whiteSpace=wrap;html=1;aspect=fixed;fillColor=none;fontFamily=Helvetica;" parent="1" vertex="1">
          <mxGeometry x="1080" y="420" width="40" height="40" as="geometry" />
        </mxCell>
        <mxCell id="Z-UmWc9-oxAZ6C5yDNQT-206" value="" style="whiteSpace=wrap;html=1;aspect=fixed;fillColor=none;fontFamily=Helvetica;" parent="1" vertex="1">
          <mxGeometry x="1080" y="260" width="40" height="40" as="geometry" />
        </mxCell>
        <mxCell id="Z-UmWc9-oxAZ6C5yDNQT-207" value="&lt;b&gt;&lt;font style=&quot;font-size: 16px;&quot;&gt;H&lt;/font&gt;&lt;/b&gt;" style="whiteSpace=wrap;html=1;aspect=fixed;fillColor=none;fontFamily=Helvetica;" parent="1" vertex="1">
          <mxGeometry x="160" y="580" width="40" height="40" as="geometry" />
        </mxCell>
        <mxCell id="Z-UmWc9-oxAZ6C5yDNQT-208" value="&lt;b&gt;&lt;font style=&quot;font-size: 16px;&quot;&gt;A&lt;/font&gt;&lt;/b&gt;" style="whiteSpace=wrap;html=1;aspect=fixed;fillColor=none;fontFamily=Helvetica;" parent="1" vertex="1">
          <mxGeometry x="200" y="580" width="40" height="40" as="geometry" />
        </mxCell>
        <mxCell id="Z-UmWc9-oxAZ6C5yDNQT-209" value="" style="whiteSpace=wrap;html=1;aspect=fixed;fillColor=none;fontFamily=Helvetica;" parent="1" vertex="1">
          <mxGeometry x="240" y="580" width="40" height="40" as="geometry" />
        </mxCell>
        <mxCell id="Z-UmWc9-oxAZ6C5yDNQT-210" value="&lt;b&gt;&lt;font style=&quot;font-size: 16px;&quot;&gt;H&lt;/font&gt;&lt;/b&gt;" style="whiteSpace=wrap;html=1;aspect=fixed;fillColor=none;fontFamily=Helvetica;" parent="1" vertex="1">
          <mxGeometry x="280" y="580" width="40" height="40" as="geometry" />
        </mxCell>
        <mxCell id="Z-UmWc9-oxAZ6C5yDNQT-211" value="&lt;b&gt;&lt;font style=&quot;font-size: 16px;&quot;&gt;B&lt;/font&gt;&lt;/b&gt;" style="whiteSpace=wrap;html=1;aspect=fixed;fillColor=none;fontFamily=Helvetica;" parent="1" vertex="1">
          <mxGeometry x="320" y="580" width="40" height="40" as="geometry" />
        </mxCell>
        <mxCell id="Z-UmWc9-oxAZ6C5yDNQT-212" value="&lt;b&gt;&lt;font style=&quot;font-size: 16px;&quot;&gt;B&lt;/font&gt;&lt;/b&gt;" style="whiteSpace=wrap;html=1;aspect=fixed;fillColor=none;fontFamily=Helvetica;" parent="1" vertex="1">
          <mxGeometry x="360" y="580" width="40" height="40" as="geometry" />
        </mxCell>
        <mxCell id="Z-UmWc9-oxAZ6C5yDNQT-215" value="" style="whiteSpace=wrap;html=1;aspect=fixed;fillColor=none;fontFamily=Helvetica;" parent="1" vertex="1">
          <mxGeometry x="400" y="580" width="40" height="40" as="geometry" />
        </mxCell>
        <mxCell id="Z-UmWc9-oxAZ6C5yDNQT-216" value="&lt;b&gt;&lt;font style=&quot;font-size: 16px;&quot;&gt;H&lt;/font&gt;&lt;/b&gt;" style="whiteSpace=wrap;html=1;aspect=fixed;fillColor=none;fontFamily=Helvetica;" parent="1" vertex="1">
          <mxGeometry x="440" y="580" width="40" height="40" as="geometry" />
        </mxCell>
        <mxCell id="Z-UmWc9-oxAZ6C5yDNQT-217" value="&lt;b&gt;&lt;font style=&quot;font-size: 16px;&quot;&gt;C&lt;/font&gt;&lt;/b&gt;" style="whiteSpace=wrap;html=1;aspect=fixed;fillColor=none;fontFamily=Helvetica;" parent="1" vertex="1">
          <mxGeometry x="480" y="580" width="40" height="40" as="geometry" />
        </mxCell>
        <mxCell id="Z-UmWc9-oxAZ6C5yDNQT-218" value="&lt;b&gt;&lt;font style=&quot;font-size: 16px;&quot;&gt;C&lt;/font&gt;&lt;/b&gt;" style="whiteSpace=wrap;html=1;aspect=fixed;fillColor=none;fontFamily=Helvetica;" parent="1" vertex="1">
          <mxGeometry x="520" y="580" width="40" height="40" as="geometry" />
        </mxCell>
        <mxCell id="Z-UmWc9-oxAZ6C5yDNQT-219" value="&lt;b&gt;&lt;font style=&quot;font-size: 16px;&quot;&gt;C&lt;/font&gt;&lt;/b&gt;" style="whiteSpace=wrap;html=1;aspect=fixed;fillColor=none;fontFamily=Helvetica;" parent="1" vertex="1">
          <mxGeometry x="560" y="580" width="40" height="40" as="geometry" />
        </mxCell>
        <mxCell id="Z-UmWc9-oxAZ6C5yDNQT-220" value="&lt;b&gt;&lt;font style=&quot;font-size: 16px;&quot;&gt;C&lt;/font&gt;&lt;/b&gt;" style="whiteSpace=wrap;html=1;aspect=fixed;fillColor=none;fontFamily=Helvetica;" parent="1" vertex="1">
          <mxGeometry x="600" y="580" width="40" height="40" as="geometry" />
        </mxCell>
        <mxCell id="Z-UmWc9-oxAZ6C5yDNQT-222" value="" style="whiteSpace=wrap;html=1;aspect=fixed;fillColor=none;fontFamily=Helvetica;" parent="1" vertex="1">
          <mxGeometry x="640" y="580" width="40" height="40" as="geometry" />
        </mxCell>
        <mxCell id="Z-UmWc9-oxAZ6C5yDNQT-223" value="" style="whiteSpace=wrap;html=1;aspect=fixed;fillColor=none;fontFamily=Helvetica;" parent="1" vertex="1">
          <mxGeometry x="680" y="580" width="40" height="40" as="geometry" />
        </mxCell>
        <mxCell id="Z-UmWc9-oxAZ6C5yDNQT-224" value="" style="whiteSpace=wrap;html=1;aspect=fixed;fillColor=none;fontFamily=Helvetica;" parent="1" vertex="1">
          <mxGeometry x="720" y="580" width="40" height="40" as="geometry" />
        </mxCell>
        <mxCell id="Z-UmWc9-oxAZ6C5yDNQT-225" value="" style="whiteSpace=wrap;html=1;aspect=fixed;fillColor=none;fontFamily=Helvetica;" parent="1" vertex="1">
          <mxGeometry x="760" y="580" width="40" height="40" as="geometry" />
        </mxCell>
        <mxCell id="Z-UmWc9-oxAZ6C5yDNQT-226" value="" style="whiteSpace=wrap;html=1;aspect=fixed;fillColor=none;fontFamily=Helvetica;" parent="1" vertex="1">
          <mxGeometry x="800" y="580" width="40" height="40" as="geometry" />
        </mxCell>
        <mxCell id="Z-UmWc9-oxAZ6C5yDNQT-227" value="" style="whiteSpace=wrap;html=1;aspect=fixed;fillColor=none;fontFamily=Helvetica;" parent="1" vertex="1">
          <mxGeometry x="840" y="580" width="40" height="40" as="geometry" />
        </mxCell>
        <mxCell id="Z-UmWc9-oxAZ6C5yDNQT-228" value="" style="whiteSpace=wrap;html=1;aspect=fixed;fillColor=none;fontFamily=Helvetica;" parent="1" vertex="1">
          <mxGeometry x="880" y="580" width="40" height="40" as="geometry" />
        </mxCell>
        <mxCell id="Z-UmWc9-oxAZ6C5yDNQT-229" value="" style="whiteSpace=wrap;html=1;aspect=fixed;fillColor=none;fontFamily=Helvetica;" parent="1" vertex="1">
          <mxGeometry x="920" y="580" width="40" height="40" as="geometry" />
        </mxCell>
        <mxCell id="Z-UmWc9-oxAZ6C5yDNQT-230" value="" style="whiteSpace=wrap;html=1;aspect=fixed;fillColor=none;fontFamily=Helvetica;" parent="1" vertex="1">
          <mxGeometry x="960" y="580" width="40" height="40" as="geometry" />
        </mxCell>
        <mxCell id="Z-UmWc9-oxAZ6C5yDNQT-231" value="" style="whiteSpace=wrap;html=1;aspect=fixed;fillColor=none;fontFamily=Helvetica;" parent="1" vertex="1">
          <mxGeometry x="1000" y="580" width="40" height="40" as="geometry" />
        </mxCell>
        <mxCell id="Z-UmWc9-oxAZ6C5yDNQT-232" value="" style="whiteSpace=wrap;html=1;aspect=fixed;fillColor=none;fontFamily=Helvetica;" parent="1" vertex="1">
          <mxGeometry x="1040" y="580" width="40" height="40" as="geometry" />
        </mxCell>
        <mxCell id="Z-UmWc9-oxAZ6C5yDNQT-233" value="" style="whiteSpace=wrap;html=1;aspect=fixed;fillColor=none;fontFamily=Helvetica;" parent="1" vertex="1">
          <mxGeometry x="1080" y="580" width="40" height="40" as="geometry" />
        </mxCell>
        <mxCell id="Z-UmWc9-oxAZ6C5yDNQT-262" value="&lt;b&gt;&lt;font style=&quot;font-size: 16px;&quot;&gt;H&lt;/font&gt;&lt;/b&gt;" style="whiteSpace=wrap;html=1;aspect=fixed;fillColor=none;fontFamily=Helvetica;" parent="1" vertex="1">
          <mxGeometry x="160" y="660" width="40" height="40" as="geometry" />
        </mxCell>
        <mxCell id="Z-UmWc9-oxAZ6C5yDNQT-263" value="&lt;b&gt;&lt;font style=&quot;font-size: 16px;&quot;&gt;A&lt;/font&gt;&lt;/b&gt;" style="whiteSpace=wrap;html=1;aspect=fixed;fillColor=none;fontFamily=Helvetica;" parent="1" vertex="1">
          <mxGeometry x="200" y="660" width="40" height="40" as="geometry" />
        </mxCell>
        <mxCell id="Z-UmWc9-oxAZ6C5yDNQT-264" value="" style="whiteSpace=wrap;html=1;aspect=fixed;fillColor=none;fontFamily=Helvetica;" parent="1" vertex="1">
          <mxGeometry x="240" y="660" width="40" height="40" as="geometry" />
        </mxCell>
        <mxCell id="Z-UmWc9-oxAZ6C5yDNQT-265" value="&lt;b&gt;&lt;font style=&quot;font-size: 16px;&quot;&gt;H&lt;/font&gt;&lt;/b&gt;" style="whiteSpace=wrap;html=1;aspect=fixed;fillColor=none;fontFamily=Helvetica;" parent="1" vertex="1">
          <mxGeometry x="280" y="660" width="40" height="40" as="geometry" />
        </mxCell>
        <mxCell id="Z-UmWc9-oxAZ6C5yDNQT-266" value="&lt;b&gt;&lt;font style=&quot;font-size: 16px;&quot;&gt;B&lt;/font&gt;&lt;/b&gt;" style="whiteSpace=wrap;html=1;aspect=fixed;fillColor=none;fontFamily=Helvetica;" parent="1" vertex="1">
          <mxGeometry x="320" y="660" width="40" height="40" as="geometry" />
        </mxCell>
        <mxCell id="Z-UmWc9-oxAZ6C5yDNQT-267" value="&lt;b&gt;&lt;font style=&quot;font-size: 16px;&quot;&gt;B&lt;/font&gt;&lt;/b&gt;" style="whiteSpace=wrap;html=1;aspect=fixed;fillColor=none;fontFamily=Helvetica;" parent="1" vertex="1">
          <mxGeometry x="360" y="660" width="40" height="40" as="geometry" />
        </mxCell>
        <mxCell id="Z-UmWc9-oxAZ6C5yDNQT-268" value="" style="whiteSpace=wrap;html=1;aspect=fixed;fillColor=none;fontFamily=Helvetica;" parent="1" vertex="1">
          <mxGeometry x="400" y="660" width="40" height="40" as="geometry" />
        </mxCell>
        <mxCell id="Z-UmWc9-oxAZ6C5yDNQT-269" value="" style="whiteSpace=wrap;html=1;aspect=fixed;fillColor=none;fontFamily=Helvetica;" parent="1" vertex="1">
          <mxGeometry x="440" y="660" width="40" height="40" as="geometry" />
        </mxCell>
        <mxCell id="Z-UmWc9-oxAZ6C5yDNQT-270" value="" style="whiteSpace=wrap;html=1;aspect=fixed;fillColor=none;fontFamily=Helvetica;" parent="1" vertex="1">
          <mxGeometry x="480" y="660" width="40" height="40" as="geometry" />
        </mxCell>
        <mxCell id="Z-UmWc9-oxAZ6C5yDNQT-271" value="" style="whiteSpace=wrap;html=1;aspect=fixed;fillColor=none;fontFamily=Helvetica;" parent="1" vertex="1">
          <mxGeometry x="520" y="660" width="40" height="40" as="geometry" />
        </mxCell>
        <mxCell id="Z-UmWc9-oxAZ6C5yDNQT-274" value="" style="whiteSpace=wrap;html=1;aspect=fixed;fillColor=none;fontFamily=Helvetica;" parent="1" vertex="1">
          <mxGeometry x="560" y="660" width="40" height="40" as="geometry" />
        </mxCell>
        <mxCell id="Z-UmWc9-oxAZ6C5yDNQT-275" value="" style="whiteSpace=wrap;html=1;aspect=fixed;fillColor=none;fontFamily=Helvetica;" parent="1" vertex="1">
          <mxGeometry x="600" y="660" width="40" height="40" as="geometry" />
        </mxCell>
        <mxCell id="Z-UmWc9-oxAZ6C5yDNQT-276" value="" style="whiteSpace=wrap;html=1;aspect=fixed;fillColor=none;fontFamily=Helvetica;" parent="1" vertex="1">
          <mxGeometry x="640" y="660" width="40" height="40" as="geometry" />
        </mxCell>
        <mxCell id="Z-UmWc9-oxAZ6C5yDNQT-277" value="" style="whiteSpace=wrap;html=1;aspect=fixed;fillColor=none;fontFamily=Helvetica;" parent="1" vertex="1">
          <mxGeometry x="680" y="660" width="40" height="40" as="geometry" />
        </mxCell>
        <mxCell id="Z-UmWc9-oxAZ6C5yDNQT-278" value="" style="whiteSpace=wrap;html=1;aspect=fixed;fillColor=none;fontFamily=Helvetica;" parent="1" vertex="1">
          <mxGeometry x="720" y="660" width="40" height="40" as="geometry" />
        </mxCell>
        <mxCell id="Z-UmWc9-oxAZ6C5yDNQT-279" value="" style="whiteSpace=wrap;html=1;aspect=fixed;fillColor=none;fontFamily=Helvetica;" parent="1" vertex="1">
          <mxGeometry x="760" y="660" width="40" height="40" as="geometry" />
        </mxCell>
        <mxCell id="Z-UmWc9-oxAZ6C5yDNQT-280" value="" style="whiteSpace=wrap;html=1;aspect=fixed;fillColor=none;fontFamily=Helvetica;" parent="1" vertex="1">
          <mxGeometry x="800" y="660" width="40" height="40" as="geometry" />
        </mxCell>
        <mxCell id="Z-UmWc9-oxAZ6C5yDNQT-281" value="" style="whiteSpace=wrap;html=1;aspect=fixed;fillColor=none;fontFamily=Helvetica;" parent="1" vertex="1">
          <mxGeometry x="840" y="660" width="40" height="40" as="geometry" />
        </mxCell>
        <mxCell id="Z-UmWc9-oxAZ6C5yDNQT-282" value="" style="whiteSpace=wrap;html=1;aspect=fixed;fillColor=none;fontFamily=Helvetica;" parent="1" vertex="1">
          <mxGeometry x="880" y="660" width="40" height="40" as="geometry" />
        </mxCell>
        <mxCell id="Z-UmWc9-oxAZ6C5yDNQT-283" value="" style="whiteSpace=wrap;html=1;aspect=fixed;fillColor=none;fontFamily=Helvetica;" parent="1" vertex="1">
          <mxGeometry x="920" y="660" width="40" height="40" as="geometry" />
        </mxCell>
        <mxCell id="Z-UmWc9-oxAZ6C5yDNQT-284" value="" style="whiteSpace=wrap;html=1;aspect=fixed;fillColor=none;fontFamily=Helvetica;" parent="1" vertex="1">
          <mxGeometry x="960" y="660" width="40" height="40" as="geometry" />
        </mxCell>
        <mxCell id="Z-UmWc9-oxAZ6C5yDNQT-285" value="" style="whiteSpace=wrap;html=1;aspect=fixed;fillColor=none;fontFamily=Helvetica;" parent="1" vertex="1">
          <mxGeometry x="1000" y="660" width="40" height="40" as="geometry" />
        </mxCell>
        <mxCell id="Z-UmWc9-oxAZ6C5yDNQT-286" value="" style="whiteSpace=wrap;html=1;aspect=fixed;fillColor=none;fontFamily=Helvetica;" parent="1" vertex="1">
          <mxGeometry x="1040" y="660" width="40" height="40" as="geometry" />
        </mxCell>
        <mxCell id="Z-UmWc9-oxAZ6C5yDNQT-287" value="" style="whiteSpace=wrap;html=1;aspect=fixed;fillColor=none;fontFamily=Helvetica;" parent="1" vertex="1">
          <mxGeometry x="1080" y="660" width="40" height="40" as="geometry" />
        </mxCell>
        <mxCell id="Z-UmWc9-oxAZ6C5yDNQT-288" value="&lt;b&gt;&lt;font style=&quot;font-size: 16px;&quot;&gt;H&lt;/font&gt;&lt;/b&gt;" style="whiteSpace=wrap;html=1;aspect=fixed;fillColor=none;fontFamily=Helvetica;" parent="1" vertex="1">
          <mxGeometry x="160" y="740" width="40" height="40" as="geometry" />
        </mxCell>
        <mxCell id="Z-UmWc9-oxAZ6C5yDNQT-289" value="&lt;b&gt;&lt;font style=&quot;font-size: 16px;&quot;&gt;A&lt;/font&gt;&lt;/b&gt;" style="whiteSpace=wrap;html=1;aspect=fixed;fillColor=none;fontFamily=Helvetica;" parent="1" vertex="1">
          <mxGeometry x="200" y="740" width="40" height="40" as="geometry" />
        </mxCell>
        <mxCell id="Z-UmWc9-oxAZ6C5yDNQT-290" value="" style="whiteSpace=wrap;html=1;aspect=fixed;fillColor=none;fontFamily=Helvetica;" parent="1" vertex="1">
          <mxGeometry x="240" y="740" width="40" height="40" as="geometry" />
        </mxCell>
        <mxCell id="Z-UmWc9-oxAZ6C5yDNQT-291" value="&lt;b&gt;&lt;font style=&quot;font-size: 16px;&quot;&gt;H&lt;/font&gt;&lt;/b&gt;" style="whiteSpace=wrap;html=1;aspect=fixed;fillColor=none;fontFamily=Helvetica;" parent="1" vertex="1">
          <mxGeometry x="280" y="740" width="40" height="40" as="geometry" />
        </mxCell>
        <mxCell id="Z-UmWc9-oxAZ6C5yDNQT-292" value="&lt;b&gt;&lt;font style=&quot;font-size: 16px;&quot;&gt;B&lt;/font&gt;&lt;/b&gt;" style="whiteSpace=wrap;html=1;aspect=fixed;fillColor=none;fontFamily=Helvetica;" parent="1" vertex="1">
          <mxGeometry x="320" y="740" width="40" height="40" as="geometry" />
        </mxCell>
        <mxCell id="Z-UmWc9-oxAZ6C5yDNQT-293" value="&lt;b&gt;&lt;font style=&quot;font-size: 16px;&quot;&gt;B&lt;/font&gt;&lt;/b&gt;" style="whiteSpace=wrap;html=1;aspect=fixed;fillColor=none;fontFamily=Helvetica;" parent="1" vertex="1">
          <mxGeometry x="360" y="740" width="40" height="40" as="geometry" />
        </mxCell>
        <mxCell id="Z-UmWc9-oxAZ6C5yDNQT-296" value="" style="whiteSpace=wrap;html=1;aspect=fixed;fillColor=none;fontFamily=Helvetica;" parent="1" vertex="1">
          <mxGeometry x="400" y="740" width="40" height="40" as="geometry" />
        </mxCell>
        <mxCell id="Z-UmWc9-oxAZ6C5yDNQT-297" value="&lt;b&gt;&lt;font style=&quot;font-size: 16px;&quot;&gt;H&lt;/font&gt;&lt;/b&gt;" style="whiteSpace=wrap;html=1;aspect=fixed;fillColor=none;fontFamily=Helvetica;" parent="1" vertex="1">
          <mxGeometry x="440" y="740" width="40" height="40" as="geometry" />
        </mxCell>
        <mxCell id="Z-UmWc9-oxAZ6C5yDNQT-298" value="&lt;b&gt;&lt;font style=&quot;font-size: 16px;&quot;&gt;E&lt;/font&gt;&lt;/b&gt;" style="whiteSpace=wrap;html=1;aspect=fixed;fillColor=none;fontFamily=Helvetica;" parent="1" vertex="1">
          <mxGeometry x="480" y="740" width="40" height="40" as="geometry" />
        </mxCell>
        <mxCell id="Z-UmWc9-oxAZ6C5yDNQT-299" value="&lt;b&gt;&lt;font style=&quot;font-size: 16px;&quot;&gt;E&lt;/font&gt;&lt;/b&gt;" style="whiteSpace=wrap;html=1;aspect=fixed;fillColor=none;fontFamily=Helvetica;" parent="1" vertex="1">
          <mxGeometry x="520" y="740" width="40" height="40" as="geometry" />
        </mxCell>
        <mxCell id="Z-UmWc9-oxAZ6C5yDNQT-300" value="&lt;b&gt;&lt;font style=&quot;font-size: 16px;&quot;&gt;E&lt;/font&gt;&lt;/b&gt;" style="whiteSpace=wrap;html=1;aspect=fixed;fillColor=none;fontFamily=Helvetica;" parent="1" vertex="1">
          <mxGeometry x="560" y="740" width="40" height="40" as="geometry" />
        </mxCell>
        <mxCell id="Z-UmWc9-oxAZ6C5yDNQT-301" value="&lt;b&gt;&lt;font style=&quot;font-size: 16px;&quot;&gt;E&lt;/font&gt;&lt;/b&gt;" style="whiteSpace=wrap;html=1;aspect=fixed;fillColor=none;fontFamily=Helvetica;" parent="1" vertex="1">
          <mxGeometry x="600" y="740" width="40" height="40" as="geometry" />
        </mxCell>
        <mxCell id="Z-UmWc9-oxAZ6C5yDNQT-307" value="" style="whiteSpace=wrap;html=1;aspect=fixed;fillColor=none;fontFamily=Helvetica;" parent="1" vertex="1">
          <mxGeometry x="800" y="740" width="40" height="40" as="geometry" />
        </mxCell>
        <mxCell id="Z-UmWc9-oxAZ6C5yDNQT-308" value="" style="whiteSpace=wrap;html=1;aspect=fixed;fillColor=none;fontFamily=Helvetica;" parent="1" vertex="1">
          <mxGeometry x="840" y="740" width="40" height="40" as="geometry" />
        </mxCell>
        <mxCell id="Z-UmWc9-oxAZ6C5yDNQT-309" value="" style="whiteSpace=wrap;html=1;aspect=fixed;fillColor=none;fontFamily=Helvetica;" parent="1" vertex="1">
          <mxGeometry x="880" y="740" width="40" height="40" as="geometry" />
        </mxCell>
        <mxCell id="Z-UmWc9-oxAZ6C5yDNQT-310" value="" style="whiteSpace=wrap;html=1;aspect=fixed;fillColor=none;fontFamily=Helvetica;" parent="1" vertex="1">
          <mxGeometry x="920" y="740" width="40" height="40" as="geometry" />
        </mxCell>
        <mxCell id="Z-UmWc9-oxAZ6C5yDNQT-311" value="" style="whiteSpace=wrap;html=1;aspect=fixed;fillColor=none;fontFamily=Helvetica;" parent="1" vertex="1">
          <mxGeometry x="960" y="740" width="40" height="40" as="geometry" />
        </mxCell>
        <mxCell id="Z-UmWc9-oxAZ6C5yDNQT-312" value="" style="whiteSpace=wrap;html=1;aspect=fixed;fillColor=none;fontFamily=Helvetica;" parent="1" vertex="1">
          <mxGeometry x="1000" y="740" width="40" height="40" as="geometry" />
        </mxCell>
        <mxCell id="Z-UmWc9-oxAZ6C5yDNQT-313" value="" style="whiteSpace=wrap;html=1;aspect=fixed;fillColor=none;fontFamily=Helvetica;" parent="1" vertex="1">
          <mxGeometry x="1040" y="740" width="40" height="40" as="geometry" />
        </mxCell>
        <mxCell id="Z-UmWc9-oxAZ6C5yDNQT-314" value="" style="whiteSpace=wrap;html=1;aspect=fixed;fillColor=none;fontFamily=Helvetica;" parent="1" vertex="1">
          <mxGeometry x="1080" y="740" width="40" height="40" as="geometry" />
        </mxCell>
        <mxCell id="Z-UmWc9-oxAZ6C5yDNQT-315" value="&lt;b&gt;&lt;font style=&quot;font-size: 16px;&quot;&gt;E&lt;/font&gt;&lt;/b&gt;" style="whiteSpace=wrap;html=1;aspect=fixed;fillColor=none;fontFamily=Helvetica;" parent="1" vertex="1">
          <mxGeometry x="640" y="740" width="40" height="40" as="geometry" />
        </mxCell>
        <mxCell id="Z-UmWc9-oxAZ6C5yDNQT-316" value="&lt;b&gt;&lt;font style=&quot;font-size: 16px;&quot;&gt;E&lt;/font&gt;&lt;/b&gt;" style="whiteSpace=wrap;html=1;aspect=fixed;fillColor=none;fontFamily=Helvetica;" parent="1" vertex="1">
          <mxGeometry x="680" y="740" width="40" height="40" as="geometry" />
        </mxCell>
        <mxCell id="Z-UmWc9-oxAZ6C5yDNQT-317" value="&lt;b&gt;&lt;font style=&quot;font-size: 16px;&quot;&gt;E&lt;/font&gt;&lt;/b&gt;" style="whiteSpace=wrap;html=1;aspect=fixed;fillColor=none;fontFamily=Helvetica;" parent="1" vertex="1">
          <mxGeometry x="720" y="740" width="40" height="40" as="geometry" />
        </mxCell>
        <mxCell id="Z-UmWc9-oxAZ6C5yDNQT-318" value="&lt;b&gt;&lt;font style=&quot;font-size: 16px;&quot;&gt;E&lt;/font&gt;&lt;/b&gt;" style="whiteSpace=wrap;html=1;aspect=fixed;fillColor=none;fontFamily=Helvetica;" parent="1" vertex="1">
          <mxGeometry x="760" y="740" width="40" height="40" as="geometry" />
        </mxCell>
      </root>
    </mxGraphModel>
  </diagram>
</mxfile>
